<?xml version="1.0" encoding="utf-8"?>
<!-- Generator: Adobe Illustrator 18.0.0, SVG Export Plug-In . SVG Version: 6.00 Build 0)  -->
<!DOCTYPE svg PUBLIC "-//W3C//DTD SVG 1.0//EN" "http://www.w3.org/TR/2001/REC-SVG-20010904/DTD/svg10.dtd">
<svg version="1.0" id="Layer_1" xmlns="http://www.w3.org/2000/svg" xmlns:xlink="http://www.w3.org/1999/xlink" x="0px" y="0px"
	 viewBox="0 0 120 70" enable-background="new 0 0 120 70" xml:space="preserve">
<polygon fill="#FFFFFF" points="116,24 109.2,20 102.4,20 99.7,15.3 90.5,10 80.4,10 78.4,6.6 66.9,0 53.6,0 41.8,6.6 39.8,10 
	29.9,10 20.5,15.3 17.7,20 11.1,20 4.1,24 0,30.8 0,38.9 4.1,45.9 11.1,50 17.8,50 20.5,54.5 29.9,60 40,60 41.8,63.2 53.6,70 
	66.9,70 78.4,63.2 80.2,60 90.5,60 99.7,54.5 102.3,50 109.2,50 116,45.9 120,38.9 120,30.8 "/>
</svg>
